<svg xmlns="http://www.w3.org/2000/svg" viewBox="0 0 24 30" x="0px" y="0px"><title>interface,activity, statistic, beat, sound, rate, health</title><path d="M22,11H17.535l-1.7-2.555a1,1,0,0,0-1.781.239l-1.914,5.742L9.97,5.757a1,1,0,0,0-1.919-.073L6.279,11H2a1,1,0,0,0,0,2H7a1,1,0,0,0,.949-.684l.914-2.742,2.167,8.669a1,1,0,0,0,.931.756H12a1,1,0,0,0,.949-.684l2.353-7.06.866,1.3A1,1,0,0,0,17,13h5a1,1,0,0,0,0-2Z"/><text x="0" y="39" fill="#000000" font-size="5px" font-weight="bold" font-family="'Helvetica Neue', Helvetica, Arial-Unicode, Arial, Sans-serif">Created by Royyan Wijaya</text><text x="0" y="44" fill="#000000" font-size="5px" font-weight="bold" font-family="'Helvetica Neue', Helvetica, Arial-Unicode, Arial, Sans-serif">from the Noun Project</text></svg>